<svg height="64" preserveAspectRatio="none" viewBox="0 0 64 64" width="64" xmlns="http://www.w3.org/2000/svg" xmlns:xlink="http://www.w3.org/1999/xlink"><linearGradient id="a"><stop offset="0" stop-color="#fff" stop-opacity=".5"/><stop offset=".9949749" stop-color="#fff" stop-opacity=".1"/></linearGradient><linearGradient id="b" gradientTransform="matrix(.9940916 -.108544 .108544 .9940916 -3.123972 3.606979)" gradientUnits="userSpaceOnUse" x1="18.573723" x2="18.573723" xlink:href="#a" y1="40.675369" y2="46.356033"/><linearGradient id="c" gradientTransform="matrix(.9940916 -.108544 .108544 .9940916 -3.123972 3.606979)" gradientUnits="userSpaceOnUse" x1="24.273674" x2="24.273674" xlink:href="#a" y1="47.146072" y2="50.974754"/><linearGradient id="d" gradientTransform="matrix(.9940916 -.108544 .108544 .9940916 -3.123972 3.606979)" gradientUnits="userSpaceOnUse" x1="20.631109" x2="20.631109" xlink:href="#a" y1="45.077713" y2="48.884193"/><linearGradient id="e"><stop offset="0" stop-color="#d9dada"/><stop offset="1" stop-color="#b2b2b3"/></linearGradient><linearGradient id="f" gradientTransform="matrix(-.9940916 .108544 .108544 .9940916 60.497894 -3.339836)" gradientUnits="userSpaceOnUse" x1="47.233727" x2="47.233727" xlink:href="#e" y1="7.021833" y2="39.158997"/><linearGradient id="g"><stop offset="0" stop-color="#fff"/><stop offset="1" stop-color="#fff" stop-opacity=".1"/></linearGradient><linearGradient id="h" gradientTransform="matrix(.9940916 -.108544 .108544 .9940916 -3.123972 3.606979)" gradientUnits="userSpaceOnUse" x1="10.53746" x2="10.53746" xlink:href="#g" y1="8.115342" y2="36.892902"/><linearGradient id="i" gradientTransform="matrix(.9940916 -.108544 .108544 .9940916 -3.123972 3.606979)" gradientUnits="userSpaceOnUse" x1="22.911219" x2="22.911219" xlink:href="#e" y1="7.021833" y2="40.276817"/><linearGradient id="j" gradientTransform="matrix(.9940916 -.108544 .108544 .9940916 -3.123972 3.606979)" gradientUnits="userSpaceOnUse" x1="22.911219" x2="22.911219" xlink:href="#g" y1="7.994583" y2="39.409298"/><linearGradient id="k"><stop offset="0" stop-color="#d9dada"/><stop offset=".8" stop-color="#b2b2b3"/><stop offset="1" stop-color="#868686"/></linearGradient><linearGradient id="l" gradientTransform="matrix(.9940916 -.108544 .108544 .9940916 -3.123972 3.606979)" gradientUnits="userSpaceOnUse" x1="18.57361" x2="18.57361" xlink:href="#k" y1="7.744768" y2="9.913571"/><linearGradient id="m"><stop offset="0" stop-color="#d9dada"/><stop offset=".5" stop-color="#b2b2b3"/><stop offset="1" stop-color="#868686"/></linearGradient><linearGradient id="n" gradientTransform="matrix(.9940916 -.108544 .108544 .9940916 -3.123972 3.606979)" gradientUnits="userSpaceOnUse" x1="14.958939" x2="14.958939" xlink:href="#m" y1="36.124115" y2="37.347092"/><linearGradient id="o" gradientTransform="matrix(-.4450877 -.895487 -.895487 .4450877 57.38213 57.152218)" gradientUnits="userSpaceOnUse" x1="21.642098" x2="21.642098" xlink:href="#e" y1="-11.782567" y2="20.354597"/><linearGradient id="p" gradientTransform="matrix(.4450877 .895487 -.895487 .4450877 28.896515 -.158951)" gradientUnits="userSpaceOnUse" x1="36.129089" x2="36.129089" xlink:href="#g" y1="-10.689057" y2="18.088501"/><linearGradient id="q" gradientTransform="matrix(.4450877 .895487 -.895487 .4450877 28.896515 -.158951)" gradientUnits="userSpaceOnUse" x1="48.502846" x2="48.502846" xlink:href="#e" y1="-11.782567" y2="21.47242"/><linearGradient id="r" gradientTransform="matrix(.4450877 .895487 -.895487 .4450877 28.896515 -.158951)" gradientUnits="userSpaceOnUse" x1="48.502846" x2="48.502846" xlink:href="#g" y1="-10.809817" y2="20.604899"/><linearGradient id="s" gradientTransform="matrix(.4450877 .895487 -.895487 .4450877 28.896515 -.158951)" gradientUnits="userSpaceOnUse" x1="44.165241" x2="44.165241" xlink:href="#k" y1="-11.059632" y2="-8.890829"/><linearGradient id="t" gradientTransform="matrix(.4450877 .895487 -.895487 .4450877 28.896515 -.158951)" gradientUnits="userSpaceOnUse" x1="40.550568" x2="40.550568" xlink:href="#m" y1="17.319716" y2="18.54269"/><path d="m20.4213409 48.1289101c-1.1700287.1277542-2.2258358-.7201843-2.35359-1.890213l-.2346325-2.1488647c-.1277542-1.1700287.7201843-2.2258339 1.890213-2.3535881 1.1700268-.1277542 2.2258358.7201843 2.35359 1.890213l.2346325 2.1488647c.1277543 1.1700248-.7201862 2.2258339-1.890213 2.3535881zm-.5609779-5.1376648c-.4779797.0521889-.8244324.4835777-.7722435.9615555l.2346325 2.1488647c.0521908.4779778.4835758.8244324.9615555.7722435.4779797-.0521927.8244343-.4835777.7722435-.9615555l-.2346325-2.1488647c-.0521908-.4779778-.4835758-.8244324-.9615555-.7722435z" fill="#9c9c9d"/><path d="m20.4482937 48.3769875c-1.3071709.1427269-2.4862595-.8042221-2.6289349-2.1109085l-.234684-2.149334c-.1427822-1.3076591.8041649-2.4867439 2.1113377-2.6294746 1.3071728-.1427269 2.4867458.8041649 2.629528 2.111824l.234684 2.149334c.1426754 1.3066863-.804758 2.4858283-2.1119308 2.6285591zm-.6980095-6.3926697c-1.0329227.1127815-1.7813473 1.0452309-1.6685638 2.0781555l.234684 2.149334c.1127834 1.0329247 1.0446949 1.7809181 2.0776176 1.6681328 1.0329247-.1127853 1.7819405-1.0443153 1.669157-2.07724l-.234684-2.149334c-.1127853-1.0329247-1.0452862-1.7818337-2.0782108-1.6690483zm.561058 5.1384048c-.614996.0671501-1.1700306-.3781662-1.2372341-.9936485l-.234684-2.149334c-.0672035-.6154823.3786488-1.1700821.9936466-1.237236.6149979-.0671501 1.1700306.3781662 1.2372341.9936485l.234684 2.149334c.0672055.6154823-.3786487 1.1700859-.9936466 1.237236zm-.4239997-3.8831711c-.3407478.0372047-.5880795.3451691-.5508728.6859169l.234684 2.149334c.0372066.3407478.3451691.5880814.6859169.5508728.3407478-.0372047.5880795-.3451691.5508728-.6859169l-.234684-2.149334c-.0372067-.3407478-.3451691-.5880775-.6859169-.5508728z" fill="#595757"/><path d="m21.6952152 43.5843391c-.1053638-.9649658-.9758987-1.6636658-1.9403801-1.5583572-.9644833.1053123-1.6632366.9753609-1.5578709 1.9403305l.2346821 2.149334c.1052589.9639969.9753075 1.6627502 1.9397907 1.5574379.9644814-.1053123 1.6637192-.9754143 1.5584621-1.9394112zm-.2749824 2.2049866c.0746231.6834373-.4209023 1.3004379-1.1043415 1.375061-.6834373.0746269-1.3004398-.4208984-1.3750629-1.1043396l-.234684-2.149334c-.074625-.6834373.4209023-1.3004379 1.1043396-1.3750648.6834393-.0746231 1.3004398.4209023 1.3750648 1.1043396z" fill="url(#b)"/><path d="m29.5540257 49.9384155c-.0412178 1.1762581-1.0316944 2.0996704-2.2079544 2.0584526l-2.1603088-.0757027c-1.1762619-.0412178-2.0996723-1.0316925-2.0584526-2.2079544.0412178-1.1762581 1.0316944-2.0996704 2.2079544-2.0584526l2.1603088.0757027c1.1762599.0412178 2.0996704 1.0316925 2.0584526 2.2079544zm-5.1650296-.1809921c-.0168381.480526.3604527.8852158.8409767.9020538l2.1603107.0757027c.4805241.0168381.8852177-.3604507.9020557-.8409767s-.3604527-.8852196-.8409767-.9020576l-2.1603107-.0756989c-.4805259-.0168381-.8852176.3604507-.9020557.8409767z" fill="#9c9c9d"/><path d="m27.6798 52.2349625c-.1121254.0122414-.2266636.0159073-.3425331.0118561l-2.1607151-.0764656c-.6350479-.0220184-1.2243328-.2906952-1.6593513-.7569771-.4345322-.4663315-.6619015-1.0731659-.6399879-1.7091866.0460148-1.2879944 1.1426983-2.350811 2.4667034-2.2989044l2.1601219.0755463c.6360207.0219154 1.2254124.2915649 1.660429.757843.4345322.4663315.6619015 1.0731659.6395016 1.70924-.0411092 1.1754684-.9543629 2.1593169-2.1241685 2.2870483zm-2.6256027-4.3206139c-.9232235.1008072-1.644392.8780136-1.6769485 1.8079376-.0178833.5019798.1621666.9813614.5055408 1.3505669.3437519.368187.8095016.5806046 1.3114796.5984879l2.1607151.0764656c1.0396004.033844 1.9134197-.7983437 1.9489479-1.8179893.0178852-.501976-.1616802-.9814148-.5055389-1.3505669-.3432674-.3682365-.8096085-.5815735-1.3115864-.5994568l-2.1601238-.0755501c-.0926323-.0026551-.1831723.0003547-.2724858.0101051zm2.4898949 3.0642471s0 0-.0004845.0000534c-.0529079.0057755-.1072121.0077782-.1624241.0059471l-2.1596375-.0756035c-.6188183-.0218239-1.1039886-.5425529-1.0825939-1.1608315.0216961-.6065254.5315056-1.1062202 1.1604557-1.0815697l2.1611996.0764122c.298708.0096283.57584.1365471.7805424.3558578s.3115711.5052986.3009739.8041115c-.0191689.5531999-.4485626 1.015629-.9980316 1.0756227zm-2.3508949-1.8092231c-.305315.0333366-.5434895.2901993-.5542088.5968857-.0122433.3422165.2570324.6311035.600275.6437225l2.1596375.0756035c.350584.0078926.6313839-.2634506.6431866-.600708.0059757-.1656914-.0529842-.323307-.1665268-.4454918-.1134377-.1212158-.2669277-.1909065-.4326706-.1973686l-2.1611996-.0764122c-.0295486-.000702-.05937.0005874-.0884933.0037689z" fill="#595757"/><path d="m27.4732914 48.0224495-2.1601238-.0755501c-.0857315-.0024261-.1709328 0-.2544212.0091171-.8620625.0941277-1.5353069.8199272-1.5658016 1.6877403-.0166359.468441.1510754.9157715.4722767 1.2618561.3208828.3431778.7556019.5413017 1.2245274.5578842l2.1607151.0764656c.9729061.0303192 1.7867699-.7481689 1.8197365-1.696804.0166359-.468441-.1511803-.9167442-.4721699-1.2608871-.3210965-.3451157-.7558137-.5432396-1.2247392-.5598221zm.0753498 2.9978142c-.0592175.0064659-.1193447.0091019-.1804886.0069351l-2.1601238-.0755463c-.6868629-.0242233-1.2269764-.6028023-1.2028084-1.2901535.0238781-.6765099.5989647-1.2216454 1.2901516-1.2028084l2.1607151.0764656c.331274.0109825.6393318.151226.8673878.3954926.2275715.2443199.3461895.5614433.334343.893795-.0212269.6153145-.4980622 1.1290932-1.1091767 1.1958199z" fill="url(#c)"/><path d="m24.672224 49.0914345c.2386971.2029114.2301941.6050301-.0189877.8981628-.2491837.293129-.6446896.3662643-.8833847.1633568l-3.4540596-2.9362221c-.2386951-.2029114-.2301941-.6050301.0189896-.8981628.2491837-.293129.6446877-.3662643.8833847-.1633568z" fill="#9c9c9d"/><path d="m24.1880779 50.5129738c-.2174568.0237427-.4239178-.036232-.5799294-.1695023l-3.4543667-2.9363403c-.3432503-.2916145-.3474712-.8520851-.0098114-1.2504654.3266296-.3824387.9045753-.4740334 1.235981-.1919327l3.4543667 2.9363441c.1710873.1453743.2666969.3687363.2612228.6109962-.0047436.2264633-.0943089.4543266-.2518959.6395187-.1719092.2024728-.4109267.3346674-.6555671.3613817zm-3.3342685-4.2206421c-.1184368.0129318-.2381134.0819969-.3286877.1881561-.156723.1841164-.1785507.4340553-.0475159.5454903l3.4543667 2.9363441c.0650311.0557709.1455288.0597534.2018337.0536041.1189232-.0129852.2381134-.0819931.3286877-.1881561.0823059-.0964165.1311703-.2157059.1332684-.3269424.0010719-.0531654-.0083904-.1533165-.0852661-.2186012l-3.4543667-2.9363441c-.0649262-.0547982-.1460152-.0596963-.2023201-.0535508z" fill="#595757"/><path d="m24.4205208 49.2949219-3.4543667-2.9363441c-.0314388-.0270233-.0757599-.0280762-.1077957-.0245781-.086401.0094337-.1763897.0624847-.2469673.1448517-.0583649.0682602-.095892.1519279-.1025658.2302666-.0050774.0614586.0093842.1129265.0407181.1389771l3.4543648 2.9363441c.0706291.0620384.2457123.0055885.3542786-.1202202.0635548-.0747223.1020679-.1673393.1035709-.2480583.0006408-.025612-.0022602-.0881654-.0412369-.1212388z" fill="url(#d)"/><path d="m20.6306076 42.1761589c.0512047.468956-.2874489.8906288-.7564049.9418335-.468956.0512047-.8906288-.2874489-.9418354-.7564049l-.293972-2.6923332c-.0512047-.468956.2874489-.8906288.7564049-.9418335.468956-.0512047.8906288.2874489.9418354.7564049z" fill="#c6c7c8"/><path d="m19.9147968 43.4909859c-.6737309.0735664-1.2816334-.4150963-1.355196-1.0888252l-.2939377-2.692009c-.0735645-.6737289.4145584-1.2820663 1.0882874-1.355629.6737309-.0735626 1.2821178.4150429 1.3556824 1.0887756l.2939377 2.6920052c.0735645.6737328-.4150429 1.2821197-1.0887738 1.3556824zm-.4794388-4.3908959c-.262598.0286751-.4528522.2655678-.4241276.5286522l.2939377 2.692009c.0287266.2630844.2656212.4533386.5282211.4246674.262598-.0286751.4533386-.2656212.424612-.5287056l-.2939377-2.692009c-.0287264-.2630844-.2661055-.4532852-.5287055-.424614z" fill="#717071"/><path d="m18.9270039 34.4431419s7.0232201-.7671051 9.4925404-6.5912762l.7381153.3835831s-5.3305798 15.5630054-24.1991348 4.8239765l.2665873-1.9449081c-.905385-1.6241264-1.6157475-3.7509823-1.9268925-6.6005802-1.4909346-13.6545992 10.6478682-15.7072554 12.8038579-15.9426661 1.0779953-.1177053 1.9665298.6942091 2.0646801 1.5924606.0981998.898387-.5943356 1.8831501-1.6723289 2.0008554 0 0-11.5770807.5368595-10.321558 12.0354691s12.7541332 10.2430859 12.7541332 10.2430859z" fill="url(#f)"/><path d="m18.5126629 37.043354c-3.9745436.4339752-8.5823765-.8213196-13.697134-3.7325325l-.1699333-.0967789.2799659-2.0435238c-.9876788-1.8051167-1.6317945-4.0332336-1.9148083-6.6251926-1.555886-14.2494621 11.5594458-16.0976829 13.059935-16.2615204 1.2896652-.1408167 2.273634.8420229 2.3835239 1.8484316.1099186 1.00669-.6387329 2.178998-1.9283962 2.3198147-.022831.0016403-.1587505.0082436-.3954029.0340834-1.8062029.1972179-10.761425 1.687501-9.6700764 11.6825333 1.2102189 11.0836926 11.9774113 10.0370045 12.4352798 9.987009.0684967-.0074768 6.8855705-.8205757 9.2578773-6.4167995l.1219826-.2877369 1.2365952.6427746-.0810947.2355461c-.0267162.0779133-2.7722778 7.8232975-10.9163494 8.7136745-.0005607.0000648-.0016841.0001869-.0019645.0002174zm-13.2409911-4.1391372c4.9380584 2.7810822 9.3712654 3.9798813 13.178215 3.5642052.0005627-.000061.0011234-.0001221.0019646-.0002136 6.9903412-.7638359 9.8245831-6.8280907 10.3429852-8.0954208l-.2355289-.12257c-2.6120453 5.6536484-9.5301723 6.4726677-9.6009159 6.4803925-.1179047.0128746-11.800787 1.1521606-13.0729856-10.4991646-1.1510901-10.5421705 8.2800198-12.1125393 10.1822309-12.32024.2638836-.0288134.4134312-.0354843.4134312-.0354843.9139881-.1003656 1.476162-.9668159 1.3982124-1.680707-.0779171-.7136097-.8137989-1.4380436-1.7458153-1.336277-1.4418173.1574306-14.0426378 1.93328-12.547781 15.6238127.2790289 2.5554638.915494 4.7395344 1.8919539 6.4913311l.0469613.0840721z" fill="#717071"/><path d="m13.0515652 35.4754219.6013689-.7487907c-3.5206757-1.0185204-7.6038008-3.6674671-8.3424587-10.4324093-.9634748-8.8239069 5.1100845-11.6700811 8.6394262-12.575161-.2039652-.328455-.3426628-.6874723-.3825998-1.0532255-.0258932-.2371454-.0028334-.4805937.0429115-.7224712-4.0133686 1.1125736-10.5425453 4.4667444-9.4495993 14.476409.2705998 2.4782658.8836603 4.5884743 1.8222961 6.2722473l.1410079.2533379-.2256346 1.6461334c2.5352999 1.39616 4.9233442 2.3533133 7.1532818 2.8839301z" fill="url(#h)"/><path d="m16.4944286 12.164587s11.4201393-1.9741859 12.675663 9.5244236c1.2555218 11.4986115-10.2430878 12.7541313-10.2430878 12.7541313l-4.3119783.4708214-1.280386 1.5942688.3923502 3.5933151 1.5942669 1.2803841s1.5157967.5617256 4.3904495.2478447 4.2335091-1.1894836 4.2335091-1.1894836l1.2803841-1.5942688s-.0784702-.7186623-.2354088-2.1559906c-.2354107-2.1559868 8.3885441-3.0976295 7.0545521-15.3149033-1.4909325-13.6545992-13.7866764-13.0392685-15.9426651-12.8038588-1.0779953.1177053-1.7703609 1.1022329-1.6723671 2.0005159.0980062.8983937.9867229 1.7105056 2.0647182 1.5928002z" fill="url(#i)"/><path d="m19.7430935 41.9172401c-2.9091816.3176498-4.4578228-.2404861-4.5223322-.264122l-.0805588-.0457458-1.6876812-1.3554077-.4183435-3.8313751 1.4304304-1.7810936 4.4310083-.4838181c.4575233-.0505257 11.19594-1.3633766 9.987009-12.4352798-1.0913486-9.9950314-10.1574459-9.5175829-11.9633675-9.3203955-.2498474.0272808-.3720665.0448866-.3766594.0496492-1.3070688.1427174-2.2904768-.8401833-2.4003658-1.8465929s.638793-2.1784353 1.9284554-2.319253c1.5007725-.163868 14.7056351-1.1895256 16.2615185 13.0599365.9572144 8.7665672-3.1086426 11.8296814-5.5382252 13.6596489-.9102974.6857262-1.5681286 1.1808243-1.5163269 1.6552544l.2484074 2.2750206-1.4241962 1.749733c-.0578881.0369987-1.4498711.9162216-4.3587723 1.2338409zm-4.2809811-.7932853c.2569075.0816002 1.7129898.4918976 4.2182045.2183533 2.5052147-.2735405 3.8384438-.9883995 4.0719681-1.1235504l1.1728535-1.4603729-.222414-2.0369606c-.0874825-.8011971.6805305-1.3799133 1.7431068-2.1799889 2.3313942-1.7561798 6.2329826-4.695118 5.3114471-13.1349163-1.4948577-13.6905332-14.1819953-12.7052136-15.6238136-12.547782-.931735.1017351-1.4942198.9679356-1.4163017 1.6815462.0779181.7136097.8132076 1.4378233 1.7444725 1.3369913.0013428-.0007143.1464024-.025075.394846-.0522032 1.9019318-.2076693 11.4499836-.7096186 12.6010742 9.832552 1.2721977 11.6513252-10.381258 13.060112-10.4991646 13.0729866l-4.1929493.4578247-1.1303406 1.4074364.3663578 3.3552589z" fill="#717071"/><path d="m17.9545612 9.3475313c.1480751.239357.2515488.5105705.2840824.8085279.039526.3619986-.0298576.7086887-.1714344 1.017952 3.3703823-.0600367 10.9243641.8877058 11.9652767 10.4208355 1.33424 12.2195187-10.8877983 13.6972065-11.0113182 13.7106915l-3.9548931.4318314-.8302498 1.033783.3143711 2.8791428 1.1857357.9522896c.3801403.1045074 1.7105427.4018288 3.8814106.1647949 2.1655331-.236454 3.3992634-.8114777 3.7548847-.9991646l.9517879-1.185112-.1964207-1.7989044c-.1231613-1.127964.8469734-1.8588562 1.9704475-2.7047806 2.3770542-1.7907104 5.9699612-4.4970913 5.0841064-12.6101246-1.1741292-10.753172-9.2827871-12.1095706-13.2277868-12.1217624z" fill="url(#j)"/><circle cx="16.298252" cy="10.367928" fill="url(#l)" r="1.084402"/><path d="m16.4473457 11.7333889c-.7529116.0822096-1.4323435-.4634542-1.5145531-1.2163668-.0822096-.7529116.4634542-1.4323435 1.2163658-1.5145531.7529125-.0822096 1.4323444.4634552 1.514555 1.2163668.0822087.7529116-.4634551 1.4323435-1.2163677 1.5145531zm-.2354107-2.1559896c-.4359703.0476036-.7518148.440877-.7042122.8768473.0476036.4359703.440877.7518148.8768463.7042122.4359703-.0476036.7518158-.440877.7042122-.8768473-.0476016-.4359694-.440876-.7518149-.8768463-.7042122z" fill="#868686"/><path d="m16.2110538 37.5425529-.0670242-.6138458c-.0346985-.3177834-.3202038-.5468216-.6377068-.5121536s-.5468531.3199234-.5121546.6377068l.0670252.6138458c-.2400723.2104721-.3784866.5298309-.3412828.8705635.0605698.554718.5612688.9568367 1.1159868.8962708.554718-.0605698.9568386-.5612717.8962708-1.1159897-.0372047-.3407326-.2412777-.6226922-.5211144-.7763978z" fill="#717071"/><circle cx="15.726039" cy="38.42881" fill="url(#n)" r=".538031"/><circle cx="22.878361" cy="37.682121" fill="#717071" r=".540116"/><path d="m29.1301231 49.9985962c-.4224396.2099686-.9351082.0377235-1.1450748-.384716-.2099667-.4224396-.0377235-.9351082.384716-1.1450729l2.4252777-1.2054482c.4224396-.2099648.9351063-.0377235 1.1450748.384716.2099648.4224396.0377235.9351082-.384716 1.1450768z" fill="#c6c7c8"/><path d="m27.6490059 49.7807579c-.301651-.6069031-.0529232-1.346138.5539799-1.647789l2.424984-1.2053032c.6069031-.301651 1.3463593-.0535736 1.6480083.5533257.301651.6069031.0531425 1.3465767-.5537605 1.6482277l-2.4249859 1.2052994c-.6069031.3016509-1.3465748.0531425-1.6482258-.5537606zm3.9553585-1.96595c-.1175747-.2365532-.4055882-.3333168-.6425781-.2155266l-2.4249859 1.2053032c-.2369881.1177902-.3337536.4058037-.2161808.6423569.1175747.2365532.4058075.3337555.6427956.2159615l2.4249859-1.2052994c.2369899-.1177903.333538-.4062424.2159633-.6427956z" fill="#717071"/><path d="m35.7994308 45.7298622s3.1447639 6.3264999 9.4633446 6.6331329l-.1051559.825161s-16.4464264.3704643-12.8822899-21.0455589l1.9173546-.4213009c1.2116623-1.4104538 2.9624748-2.8114491 5.5294189-4.0873089 12.30019-6.113615 18.4176445 4.5700493 19.3829536 6.5121841.4826508.9710655.0274391 2.0852852-.7816887 2.4875259-.8092384.4023399-1.9725533.0923882-2.455204-.8786812 0 0-4.5009308-10.6798229-14.8589859-5.5315151s-5.2097473 15.5063611-5.2097473 15.5063611z" fill="url(#o)"/><path d="m33.2160606 46.2387466c-1.7795353-3.580307-2.1923199-8.3381958-1.226038-14.1435547l.0321598-.1928978 2.0145187-.4427929c1.3531113-1.5501747 3.2218323-2.9239597 5.556694-4.084465 12.8360443-6.3799553 19.098793 5.2907734 19.7706108 6.6424274.5774269 1.1617393-.0052528 2.4245377-.9118347 2.8751411-.9068375.4507256-2.2655334.1528625-2.8429604-1.0088806-.0094223-.0208588-.0625458-.1461411-.1685028-.3593216-.8086967-1.6270447-5.2992058-9.5170555-14.3028221-5.0419502-9.9842949 4.9625359-5.2845039 14.7062531-5.0795021 15.1187019.0306664.0617065 3.1474152 6.1788521 9.2185745 6.4731369l.3121567.0151405-.1763039 1.3824768-.2490578.0052185c-.0823479.0018234-8.2993774.0992508-11.9468117-7.2366104-.0002515-.0005072-.0007551-.0015181-.000881-.0017699zm-.6869506-13.8558464c-.9051609 5.5946007-.4996452 10.1690941 1.2048531 13.5984306.0002518.0005035.0005035.0010109.0008812.00177 3.1303406 6.2967682 9.8002319 6.8629913 11.1686134 6.9119606l.0337143-.2633667c-6.2078247-.4994545-9.3650169-6.7093964-9.3966904-6.7731247-.0527916-.1062088-5.155632-10.6773376 5.3399887-15.8940201 9.4964867-4.7200775 14.2264557 3.5889091 15.0781403 5.3024368.1181488.237709.1760406.3757591.1760406.3757591.4097557.8231316 1.4170227 1.0515862 2.0601044.7319565.6428261-.3195076 1.0686417-1.2602539.6513481-2.099823-.6455498-1.2988052-6.662735-12.5116444-18.9952927-6.3819408-2.3019867 1.1441669-4.1320076 2.4955616-5.4389534 4.0167999l-.0626907.073101z" fill="#717071"/><path d="m32.8020859 40.5721207.9103737.3058624c-.2596512-3.6558304.8166733-8.4024467 6.9105949-11.4313354 7.948658-3.9507542 12.7167587.7666626 14.7847176 3.7664909.2378387-.3048248.5268936-.5589485.8563652-.7227097.213623-.1061745.4500656-.1685867.6928596-.2091637-2.4298058-3.3824539-7.831974-8.3520813-16.8487701-3.8704243-2.2324448 1.109602-4.0012283 2.4135303-5.2573929 3.8757839l-.1890755.2198029-1.6228104.3565826c-.4349746 2.861435-.5087737 5.4330979-.2368621 7.7091104z" fill="url(#p)"/><path d="m55.8681641 35.7550163s5.7956848 10.0362854-4.5623703 15.1845932-15.5063629-5.2097473-15.5063629-5.2097473l-1.9306145-3.8842697-1.9382954-.6512184-3.2368908 1.6088486-.6512184 1.9382935s-.0038414 1.6165276 1.2832355 4.2060394c1.287077 2.5895157 2.5779953 3.5625 2.5779953 3.5625l1.9382954.6512184s.647377-.3217659 1.9421349-.9653053c1.9421349-.9653091 5.8033676 6.8032341 16.8087997 1.3331566 12.3001862-6.1136169 7.4774895-17.4408188 6.5121841-19.3829536-.4826546-.9710693-1.6456871-1.2809448-2.4548988-.8788338-.8093109.4021567-1.2646484 1.5166129-.7819938 2.4876784z" fill="url(#q)"/><path d="m29.0666962 49.0762634c-1.302536-2.6206169-1.3134022-4.2667313-1.3134918-4.335434l.0151196-.0914001.6893749-2.0518646 3.4513378-1.715435 2.1654377.7275352 1.9839096 3.9914894c.2053833.4119492 5.145031 10.0367622 15.1187019 5.0795059 9.0036201-4.4751091 5.4253845-12.8188667 4.6168137-14.4456596-.111866-.2250633-.1705856-.3336868-.1766396-.3363533-.5852203-1.1774216-.0022888-2.4397125.9042931-2.890316.9065819-.4505997 2.2650299-.152607 2.842453 1.0091324.6719437 1.3519096 6.1936188 13.3906555-6.6424255 19.7706108-7.897007 3.9250832-12.1755371 1.1668091-14.7318077-.4815598-.9578438-.617569-1.6496201-1.0640144-2.076992-.8515968l-2.0493584 1.0186005-2.1338539-.7325096c-.0547124-.0415535-1.3604604-1.0443802-2.6628724-3.6647454zm-.7335377-4.2916221c.0121155.2692833.1297741 1.7774849 1.25144 4.0342064 1.1216679 2.2567215 2.2528782 3.2611542 2.4603424 3.4336586l1.7755089.5965233 1.8349152-.912014c.7217255-.3587227 1.5300179.1622581 2.6477547.8832626 2.453125 1.5816956 6.5583954 4.228672 14.1610451.449894 12.3325577-6.1297035 7.0274887-17.6964912 6.3819389-18.9952927-.4171677-.8393173-1.4243088-1.0681496-2.0671349-.748642-.6428261.3195038-1.0686417 1.2596207-.6524849 2.0988083.0011368.0010109.0740814.1287384.185318.3525429.8515587 1.7132759 4.6191864 10.5008965-4.8773003 15.220974-10.4956207 5.2166824-15.8412323-5.2337799-15.8940201-5.3399925l-1.8773232-3.7770462-1.7111511-.5749054-3.0224476 1.5022621z" fill="#717071"/><path d="m59.0161133 36.1527519c-.1735115.221611-.3923264.4123573-.6607285.5457649-.3260918.1620789-.6754189.2166595-1.0145416.1905632 1.2199936 3.1424026 2.9386063 10.5590858-5.6489258 14.8273849-11.0074539 5.4710808-16.6140366-5.4892082-16.6693382-5.6004791l-1.7707367-3.562603-1.2568645-.4222755-2.5935593 1.2890892-.4843445 1.4416084c.0331669.3928452.213459 1.744091 1.1854286 3.6996269.9695797 1.9507332 1.9352016 2.9100685 2.234129 3.1790199l1.4408493.4840889 1.6204681-.8054276c1.0160789-.5050278 2.0369759.1531067 3.2187729.915432 2.5012932 1.6126251 6.2817307 4.0501976 13.5900269.4177246 9.6865577-4.8145522 8.1599655-12.8928946 6.8093643-16.5995177z" fill="url(#r)"/><circle cx="57.48661" cy="34.950592" fill="url(#s)" r="1.084402"/><path d="m56.2565918 35.5619545c-.3371048-.6782303-.0595741-1.5042763.6186562-1.8413811.6782303-.337101 1.5042763-.0595703 1.8413811.61866.337101.6782303.0595703 1.5042763-.61866 1.8413811-.6782303.337101-1.5042763.0595703-1.8413773-.61866zm1.9421349-.9653053c-.1951981-.3927269-.673336-.5533714-1.0660629-.3581696-.3927269.1951981-.5533676.673336-.3581696 1.0660591.1951981.3927269.673336.5533714 1.0660591.3581734.3927269-.1952019.5533714-.6733398.3581734-1.0660629z" fill="#868686"/><path d="m31.9529076 44.2510223.5529594-.2748413c.2862625-.1422806.4026413-.4893074.2604866-.7753181-.1421585-.2860069-.4890556-.4027672-.7753181-.2604866l-.5529594.2748413c-.2804146-.1526451-.627924-.172287-.9348583-.0197296-.4996967.2483673-.7042198.8571129-.4558544 1.3568077.2483673.4996948.8571129.704216 1.3568077.4558525.3069362-.1525574.5011004-.441433.5487365-.7571259z" fill="#717071"/><circle cx="30.953693" cy="44.101818" fill="url(#t)" r=".538031"/><circle cx="34.123867" cy="50.556526" fill="#717071" r=".540116"/></svg>